<?xml version="1.0" standalone="no"?>
<!DOCTYPE svg PUBLIC "-//W3C//DTD SVG 20010904//EN"
 "http://www.w3.org/TR/2001/REC-SVG-20010904/DTD/svg10.dtd">
<svg version="1.0" xmlns="http://www.w3.org/2000/svg"
 width="1500.000000pt" height="1500.000000pt" viewBox="0 0 1500.000000 1500.000000"
 preserveAspectRatio="xMidYMid meet">
<metadata>
Created by potrace 1.11, written by Peter Selinger 2001-2013
</metadata>
<g transform="translate(0.000000,1500.000000) scale(0.100000,-0.100000)"
fill="#000000" stroke="none">
<path d="M2778 10218 c-1528 -882 -2777 -1608 -2778 -1615 0 -11 422 -749 438
-765 4 -4 174 88 377 206 l370 213 3 -2338 2 -2339 6905 0 c3798 0 6905 3
6905 8 0 4 -199 206 -443 450 l-442 442 -6013 0 -6012 0 2 2151 3 2152 1740
1005 c957 553 1749 1006 1760 1006 11 1 962 -543 2113 -1208 1170 -675 2097
-1205 2102 -1200 18 19 440 759 437 767 -1 5 -258 156 -570 335 l-567 327 0
443 0 442 -450 0 -450 0 0 -180 c0 -99 -1 -180 -3 -180 -2 0 -577 331 -1278
736 -701 405 -1280 738 -1287 741 -7 3 -21 -2 -32 -12 -18 -16 -20 -16 -26 -1
-3 9 -11 16 -18 16 -6 0 -1261 -721 -2788 -1602z"/>
<path d="M3512 7809 c-116 -16 -289 -63 -391 -107 -438 -190 -765 -599 -865
-1082 -52 -254 -47 -570 13 -821 104 -437 405 -819 796 -1010 231 -113 388
-144 720 -144 288 1 508 22 753 75 l52 12 0 163 0 163 -52 -13 c-266 -69 -843
-101 -1073 -60 -389 68 -618 245 -794 616 -98 206 -135 383 -135 649 0 150 4
206 22 295 56 283 182 528 355 691 137 129 307 210 527 250 136 25 450 25 580
0 312 -61 526 -200 670 -434 120 -196 189 -521 177 -832 -7 -169 -24 -247 -74
-342 -60 -115 -152 -177 -294 -199 -90 -14 -138 -7 -179 27 -59 50 -60 66 -60
711 l0 583 -240 0 -240 0 0 -47 0 -47 -27 27 c-65 62 -204 94 -363 83 -160
-10 -247 -42 -317 -119 -73 -79 -73 -77 -73 -707 0 -645 -2 -629 84 -715 85
-85 234 -124 425 -110 171 12 301 58 386 136 l43 40 47 -44 c103 -99 251 -143
450 -134 141 6 211 23 320 77 149 73 268 196 350 363 79 160 89 216 89 482 1
249 -12 358 -61 550 -100 387 -311 658 -643 825 -135 67 -248 104 -425 137
-98 18 -450 26 -553 12z m175 -1153 l28 -24 3 -419 c2 -274 -1 -430 -7 -454
-22 -73 -129 -79 -163 -9 -16 32 -18 74 -18 430 0 241 4 410 10 432 19 69 93
90 147 44z"/>
<path d="M5330 6215 l0 -1565 355 0 355 0 0 1043 0 1044 23 21 c46 43 130 50
184 14 13 -8 27 -30 33 -51 6 -23 10 -397 10 -1053 l0 -1018 355 0 355 0 -2
1133 -3 1132 -23 47 c-47 95 -163 175 -312 215 -136 36 -447 16 -569 -38 -24
-10 -45 -19 -47 -19 -2 0 -4 149 -4 330 l0 330 -355 0 -355 0 0 -1565z"/>
<path d="M7825 7194 c-436 -32 -664 -173 -705 -440 -7 -46 -10 -340 -8 -894 3
-820 3 -825 25 -882 67 -177 205 -276 463 -333 116 -26 483 -32 627 -11 241
35 392 111 473 238 74 113 71 78 68 1058 l-3 875 -32 66 c-73 148 -255 254
-518 303 -83 15 -302 26 -390 20z m157 -404 c20 -6 46 -22 58 -37 20 -25 20
-35 20 -840 0 -888 2 -861 -56 -883 -39 -15 -107 -12 -133 6 -52 37 -51 24
-51 874 0 850 0 842 51 867 52 25 62 26 111 13z"/>
<path d="M9886 7190 c-93 -11 -172 -33 -238 -66 l-48 -24 0 40 0 40 -355 0
-355 0 0 -1265 0 -1265 355 0 355 0 0 1035 0 1035 28 31 c24 27 35 31 79 32
58 1 99 -20 113 -59 6 -16 10 -423 10 -1050 l0 -1024 355 0 355 0 0 1035 0
1035 28 31 c24 27 35 31 79 32 58 1 99 -20 113 -59 6 -16 10 -423 10 -1050 l0
-1024 355 0 355 0 -2 1128 -3 1127 -28 57 c-34 69 -85 117 -175 162 -109 55
-179 70 -322 69 -183 -2 -323 -43 -433 -127 l-48 -36 -46 35 c-138 105 -325
149 -537 125z"/>
<path d="M12325 7194 c-395 -30 -608 -154 -670 -389 -13 -51 -15 -177 -15
-900 0 -786 1 -845 18 -907 58 -206 242 -329 555 -368 121 -15 406 -12 522 5
315 47 485 170 530 382 11 50 15 144 15 351 l0 282 -355 0 -355 0 0 -262 c0
-147 -5 -279 -10 -299 -13 -47 -47 -69 -104 -69 -33 0 -52 6 -73 24 l-28 24
-3 326 -3 326 466 0 465 0 0 504 c0 292 -4 525 -10 556 -18 93 -57 165 -126
230 -97 90 -225 143 -415 169 -84 11 -330 21 -404 15z m181 -409 c61 -25 64
-45 64 -385 l0 -300 -110 0 -110 0 0 313 c0 345 0 345 64 373 40 17 49 17 92
-1z"/>
</g>
</svg>
